<?xml version="1.0" standalone="no"?>
<!DOCTYPE svg PUBLIC "-//W3C//DTD SVG 20010904//EN"
 "http://www.w3.org/TR/2001/REC-SVG-20010904/DTD/svg10.dtd">
<svg version="1.0" xmlns="http://www.w3.org/2000/svg"
 width="121.000000pt" height="121.000000pt" viewBox="0 0 121.000000 121.000000"
 preserveAspectRatio="xMidYMid meet">
<metadata>
Created by potrace 1.14, written by Peter Selinger 2001-2017
</metadata>
<g transform="translate(0.000000,121.000000) scale(0.100000,-0.100000)"
fill="#000000" stroke="none">
<path d="M120 899 c0 -375 11 -438 106 -586 81 -127 199 -234 317 -288 l57
-26 57 26 c136 62 285 212 357 359 59 122 66 177 66 515 l0 301 -480 0 -480 0
0 -301z m470 26 l0 -245 -220 0 -220 0 0 245 0 245 220 0 220 0 0 -245z m460
0 l0 -245 -220 0 -220 0 0 245 0 245 220 0 220 0 0 -245z m-462 -583 l2 -303
-22 6 c-90 27 -268 193 -334 311 -42 75 -84 206 -84 260 l0 34 218 -2 217 -3
3 -303z m462 274 c0 -54 -42 -186 -84 -260 -64 -114 -216 -259 -319 -304 -15
-7 -30 -12 -32 -12 -8 0 -6 596 2 603 3 4 102 7 220 7 l213 0 0 -34z"/>
<path d="M200 1078 c0 -7 31 -87 69 -178 l69 -165 32 0 33 0 63 165 c35 90 64
170 64 177 0 8 -12 13 -27 13 -27 0 -30 -7 -78 -135 -27 -74 -52 -135 -56
-135 -3 0 -30 61 -60 135 -51 127 -56 135 -81 135 -16 0 -28 -5 -28 -12z"/>
<path d="M735 1034 c-44 -20 -83 -39 -88 -43 -4 -4 34 -26 85 -48 90 -39 94
-40 128 -26 88 38 111 46 117 40 3 -4 1 -13 -6 -20 -14 -18 -3 -107 14 -107 9
0 11 21 9 72 -1 47 2 75 9 80 11 7 -153 88 -176 88 -7 0 -48 -17 -92 -36z"/>
<path d="M726 923 c-17 -17 -4 -41 24 -47 17 -3 41 -16 54 -29 l23 -23 32 28
c17 15 40 28 51 28 15 0 20 7 20 25 l0 25 -37 -16 c-60 -26 -78 -27 -120 -5
-22 11 -43 17 -47 14z"/>
<path d="M365 483 c-42 -42 -84 -87 -92 -100 -14 -21 -14 -25 2 -43 10 -11 22
-20 28 -20 5 0 -1 8 -13 18 -13 11 -20 24 -16 30 11 18 24 14 22 -5 -1 -13 6
-18 27 -18 26 1 27 0 11 -12 -13 -9 -14 -13 -4 -13 8 0 29 14 47 32 32 31 33
31 33 9 0 -18 3 -21 13 -12 10 8 17 7 25 -1 9 -9 12 -1 12 36 0 41 5 54 35 87
42 46 44 66 9 79 -46 18 -60 11 -139 -67z m125 59 c0 -17 -49 -54 -64 -49 -22
9 -20 23 6 41 24 17 58 21 58 8z m0 -57 c-24 -25 -36 -31 -42 -23 -10 17 52
82 66 68 7 -7 -1 -22 -24 -45z m-54 -34 c-9 -14 -33 -14 -41 -1 -4 6 -1 18 6
26 11 13 14 13 27 0 8 -8 11 -19 8 -25z m-53 3 c4 -4 -5 -20 -18 -36 -14 -16
-25 -37 -25 -46 0 -14 -4 -13 -22 6 l-22 22 29 30 c28 29 45 36 58 24z m31
-32 c3 -5 -8 -21 -23 -36 -36 -34 -54 -16 -20 20 24 25 35 29 43 16z"/>
<path d="M673 405 c28 -123 32 -135 52 -135 20 0 24 11 45 103 12 56 25 105
29 109 4 4 17 -42 30 -102 22 -100 26 -110 46 -110 19 0 24 9 39 78 9 42 23
103 31 135 12 53 12 57 -4 57 -15 0 -22 -20 -41 -105 -13 -58 -26 -102 -30
-98 -4 4 -14 44 -24 88 -25 114 -25 115 -46 115 -21 0 -22 -2 -46 -115 -9 -44
-19 -83 -23 -88 -4 -4 -18 40 -31 98 -18 83 -26 105 -40 105 -15 0 -14 -13 13
-135z"/>
</g>
</svg>
